G04 Layer_Color=8388736*
%FSLAX25Y25*%
%MOIN*%
G70*
G01*
G75*
%ADD32R,0.04658X0.04461*%
%ADD33R,0.04461X0.04658*%
%ADD34R,0.10249X0.08280*%
%ADD35R,0.32296X0.06706*%
%ADD36R,0.24422X0.05524*%
%ADD37O,0.07487X0.01502*%
%ADD38O,0.01502X0.07487*%
%ADD39O,0.09461X0.03556*%
%ADD40R,0.03359X0.05328*%
%ADD41R,0.05524X0.05524*%
%ADD42C,0.05524*%
%ADD43C,0.03950*%
%ADD44C,0.06706*%
D32*
X119000Y85500D02*
D03*
Y91563D02*
D03*
X128500Y85469D02*
D03*
Y91531D02*
D03*
X108500Y91531D02*
D03*
Y85469D02*
D03*
X133000Y28032D02*
D03*
Y21969D02*
D03*
X53500Y33937D02*
D03*
Y40000D02*
D03*
X42000Y34969D02*
D03*
Y41032D02*
D03*
D33*
X121031Y51500D02*
D03*
X114969D02*
D03*
X121531Y61500D02*
D03*
X115469D02*
D03*
X120531Y72000D02*
D03*
X114469D02*
D03*
X44469Y21500D02*
D03*
X50532D02*
D03*
X47032Y56500D02*
D03*
X40968D02*
D03*
X103500Y20500D02*
D03*
X97437D02*
D03*
X81000D02*
D03*
X87063D02*
D03*
X71063D02*
D03*
X65000D02*
D03*
X24937Y41000D02*
D03*
X31000D02*
D03*
X24437Y57000D02*
D03*
X30500D02*
D03*
X23937Y74500D02*
D03*
X30000D02*
D03*
X47032D02*
D03*
X40968D02*
D03*
X29500Y91500D02*
D03*
X23437D02*
D03*
X46500D02*
D03*
X40437D02*
D03*
X13032D02*
D03*
X6968D02*
D03*
X13532Y22000D02*
D03*
X7468D02*
D03*
D34*
X118500Y39000D02*
D03*
Y22858D02*
D03*
D35*
X165500Y69000D02*
D03*
Y40500D02*
D03*
D36*
X164500Y50500D02*
D03*
Y59000D02*
D03*
D37*
X95500Y41846D02*
D03*
Y43815D02*
D03*
Y45783D02*
D03*
Y47752D02*
D03*
Y49720D02*
D03*
Y51689D02*
D03*
Y53658D02*
D03*
Y55626D02*
D03*
Y57595D02*
D03*
Y59563D02*
D03*
Y61532D02*
D03*
Y63500D02*
D03*
X63610D02*
D03*
Y61532D02*
D03*
Y59563D02*
D03*
Y57595D02*
D03*
Y55626D02*
D03*
Y53658D02*
D03*
Y51689D02*
D03*
Y49720D02*
D03*
Y47752D02*
D03*
Y45783D02*
D03*
Y43815D02*
D03*
Y41846D02*
D03*
D38*
X90382Y68618D02*
D03*
X88413D02*
D03*
X86445D02*
D03*
X84476D02*
D03*
X82508D02*
D03*
X80539D02*
D03*
X78571D02*
D03*
X76602D02*
D03*
X74634D02*
D03*
X72665D02*
D03*
X70697D02*
D03*
X68728D02*
D03*
Y36728D02*
D03*
X70697D02*
D03*
X72665D02*
D03*
X74634D02*
D03*
X76602D02*
D03*
X78571D02*
D03*
X80539D02*
D03*
X82508D02*
D03*
X84476D02*
D03*
X86445D02*
D03*
X88413D02*
D03*
X90382D02*
D03*
D39*
X64614Y95500D02*
D03*
Y90500D02*
D03*
Y85500D02*
D03*
Y80500D02*
D03*
X91386Y95500D02*
D03*
Y90500D02*
D03*
Y85500D02*
D03*
Y80500D02*
D03*
D40*
X28000Y16193D02*
D03*
X24260Y27807D02*
D03*
X31740D02*
D03*
D41*
X10000Y71000D02*
D03*
D42*
Y61000D02*
D03*
Y51000D02*
D03*
Y41000D02*
D03*
D43*
X87500Y76000D02*
D03*
X77500Y90500D02*
D03*
X124500Y31000D02*
D03*
X142500Y40000D02*
D03*
X114000Y79000D02*
D03*
X18500Y35500D02*
D03*
X35500D02*
D03*
X18000Y51000D02*
D03*
X30500Y50000D02*
D03*
X37500Y15500D02*
D03*
X52000Y28000D02*
D03*
X52500Y14500D02*
D03*
X92500Y15500D02*
D03*
X47000Y50000D02*
D03*
X47500Y38000D02*
D03*
X18500Y61500D02*
D03*
X54000Y87500D02*
D03*
X68000Y75000D02*
D03*
X107500Y51500D02*
D03*
X101500Y36500D02*
D03*
X103000Y67000D02*
D03*
X103500Y60500D02*
D03*
X34500Y85000D02*
D03*
X50000D02*
D03*
X16500Y82500D02*
D03*
X105500Y43000D02*
D03*
X52000Y66000D02*
D03*
X141500Y68500D02*
D03*
X134000D02*
D03*
X71000Y29500D02*
D03*
X93000Y26500D02*
D03*
X57500D02*
D03*
X108000Y32000D02*
D03*
X138000Y51000D02*
D03*
X59625Y30875D02*
D03*
X74000Y94500D02*
D03*
X78500Y75000D02*
D03*
D44*
X5500Y12500D02*
D03*
M02*
