G04 Layer_Color=255*
%FSLAX25Y25*%
%MOIN*%
G70*
G01*
G75*
%ADD10R,0.03858X0.03661*%
%ADD11R,0.03661X0.03858*%
%ADD12R,0.09449X0.07480*%
%ADD13R,0.31496X0.05905*%
%ADD14R,0.23622X0.04724*%
%ADD15O,0.07087X0.01102*%
%ADD16O,0.01102X0.07087*%
%ADD17O,0.08661X0.02756*%
%ADD18R,0.02559X0.04528*%
%ADD20R,0.04724X0.04724*%
%ADD21C,0.04724*%
D10*
X119000Y85500D02*
D03*
Y91563D02*
D03*
X128500Y85469D02*
D03*
Y91531D02*
D03*
X108500Y91531D02*
D03*
Y85469D02*
D03*
X133000Y28032D02*
D03*
Y21969D02*
D03*
X53500Y33937D02*
D03*
Y40000D02*
D03*
X42000Y34969D02*
D03*
Y41032D02*
D03*
D11*
X121031Y51500D02*
D03*
X114969D02*
D03*
X121531Y61500D02*
D03*
X115469D02*
D03*
X120531Y72000D02*
D03*
X114469D02*
D03*
X44469Y21500D02*
D03*
X50532D02*
D03*
X47032Y56500D02*
D03*
X40968D02*
D03*
X103500Y20500D02*
D03*
X97437D02*
D03*
X81000D02*
D03*
X87063D02*
D03*
X71063D02*
D03*
X65000D02*
D03*
X24937Y41000D02*
D03*
X31000D02*
D03*
X24437Y57000D02*
D03*
X30500D02*
D03*
X23937Y74500D02*
D03*
X30000D02*
D03*
X47032D02*
D03*
X40968D02*
D03*
X29500Y91500D02*
D03*
X23437D02*
D03*
X46500D02*
D03*
X40437D02*
D03*
X13032D02*
D03*
X6968D02*
D03*
X13532Y22000D02*
D03*
X7468D02*
D03*
D12*
X118500Y39000D02*
D03*
Y22858D02*
D03*
D13*
X165500Y69000D02*
D03*
Y40500D02*
D03*
D14*
X164500Y50500D02*
D03*
Y59000D02*
D03*
D15*
X95500Y41846D02*
D03*
Y43815D02*
D03*
Y45783D02*
D03*
Y47752D02*
D03*
Y49720D02*
D03*
Y51689D02*
D03*
Y53658D02*
D03*
Y55626D02*
D03*
Y57595D02*
D03*
Y59563D02*
D03*
Y61532D02*
D03*
Y63500D02*
D03*
X63610D02*
D03*
Y61532D02*
D03*
Y59563D02*
D03*
Y57595D02*
D03*
Y55626D02*
D03*
Y53658D02*
D03*
Y51689D02*
D03*
Y49720D02*
D03*
Y47752D02*
D03*
Y45783D02*
D03*
Y43815D02*
D03*
Y41846D02*
D03*
D16*
X90382Y68618D02*
D03*
X88413D02*
D03*
X86445D02*
D03*
X84476D02*
D03*
X82508D02*
D03*
X80539D02*
D03*
X78571D02*
D03*
X76602D02*
D03*
X74634D02*
D03*
X72665D02*
D03*
X70697D02*
D03*
X68728D02*
D03*
Y36728D02*
D03*
X70697D02*
D03*
X72665D02*
D03*
X74634D02*
D03*
X76602D02*
D03*
X78571D02*
D03*
X80539D02*
D03*
X82508D02*
D03*
X84476D02*
D03*
X86445D02*
D03*
X88413D02*
D03*
X90382D02*
D03*
D17*
X64614Y95500D02*
D03*
Y90500D02*
D03*
Y85500D02*
D03*
Y80500D02*
D03*
X91386Y95500D02*
D03*
Y90500D02*
D03*
Y85500D02*
D03*
Y80500D02*
D03*
D18*
X28000Y16193D02*
D03*
X24260Y27807D02*
D03*
X31740D02*
D03*
D20*
X10000Y71000D02*
D03*
D21*
Y61000D02*
D03*
Y51000D02*
D03*
Y41000D02*
D03*
M02*
