G04 Layer_Color=16711935*
%FSLAX25Y25*%
%MOIN*%
G70*
G01*
G75*
%ADD45C,0.00394*%
D45*
X91760Y42437D02*
G03*
X91760Y42437I-1969J0D01*
G01*
X87055Y81012D02*
G03*
X87055Y81012I-1969J0D01*
G01*
X112201Y21087D02*
X124799D01*
X112201Y40772D02*
X124799D01*
X112201Y21087D02*
Y40772D01*
X124799Y21087D02*
Y40772D01*
X93335Y38894D02*
Y66453D01*
X65776Y38894D02*
Y66453D01*
Y38894D02*
X93335D01*
X65776Y66453D02*
X93335D01*
X67370Y98532D02*
X88630D01*
X67370Y77469D02*
X88630D01*
X67370D02*
Y98532D01*
X88630Y77469D02*
Y98532D01*
X47087Y17890D02*
X48268Y19071D01*
X46299Y18283D02*
X47480Y19465D01*
X45925Y21500D02*
X49075D01*
X48287Y19925D02*
Y23075D01*
X46713D02*
X48287Y21500D01*
X46713Y19925D02*
X48287Y21500D01*
X46713Y19925D02*
Y23075D01*
X129390Y25413D02*
X130571Y24232D01*
X129783Y26201D02*
X130965Y25020D01*
X133000Y23425D02*
Y26575D01*
X131425Y24213D02*
X134575D01*
X133000D02*
X134575Y25787D01*
X131425D02*
X133000Y24213D01*
X131425Y25787D02*
X134575D01*
X21898Y18457D02*
Y25543D01*
X34102Y18457D02*
Y25543D01*
X21898Y18457D02*
X34102D01*
X21898Y25543D02*
X34102D01*
M02*
