G04 Layer_Color=128*
%FSLAX25Y25*%
%MOIN*%
G70*
G01*
G75*
%ADD10C,0.01000*%
%ADD11C,0.00200*%
%ADD13C,0.00394*%
D10*
X135000Y7500D02*
G03*
X140000Y12500I0J5000D01*
G01*
Y102500D02*
G03*
X135000Y107500I-5000J0D01*
G01*
X0Y13000D02*
G03*
X5500Y7500I5500J0D01*
G01*
X5000Y107500D02*
G03*
X0Y102500I0J-5000D01*
G01*
X188976Y76000D02*
G03*
X185000Y80000I-3988J12D01*
G01*
X184500Y29500D02*
G03*
X188976Y33976I0J4476D01*
G01*
X140000Y80000D02*
Y84500D01*
Y102500D01*
X5000Y107500D02*
X135000D01*
X140000Y12500D02*
Y29500D01*
X5500Y7500D02*
X135000D01*
X0Y13000D02*
Y102500D01*
X140000Y80000D02*
X185000D01*
X140000Y29500D02*
X184500D01*
X188976Y33976D02*
Y76000D01*
D11*
X8130Y71000D02*
X11870D01*
X10000Y69130D02*
Y72870D01*
X8130Y61000D02*
X11870D01*
X10000Y59130D02*
Y62870D01*
X8130Y51000D02*
X11870D01*
X10000Y49130D02*
Y52870D01*
X8130Y41000D02*
X11870D01*
X10000Y39130D02*
Y42870D01*
X86221Y76000D02*
X88779D01*
X87500Y74721D02*
Y77280D01*
X76221Y90500D02*
X78780D01*
X77500Y89220D02*
Y91780D01*
X123221Y31000D02*
X125779D01*
X124500Y29721D02*
Y32280D01*
X141220Y40000D02*
X143780D01*
X142500Y38721D02*
Y41280D01*
X112721Y79000D02*
X115279D01*
X114000Y77720D02*
Y80279D01*
X17221Y35500D02*
X19780D01*
X18500Y34220D02*
Y36779D01*
X34220Y35500D02*
X36779D01*
X35500Y34220D02*
Y36779D01*
X16721Y51000D02*
X19279D01*
X18000Y49720D02*
Y52280D01*
X29221Y50000D02*
X31780D01*
X30500Y48720D02*
Y51279D01*
X36220Y15500D02*
X38780D01*
X37500Y14220D02*
Y16780D01*
X50721Y28000D02*
X53280D01*
X52000Y26720D02*
Y29280D01*
X51221Y14500D02*
X53780D01*
X52500Y13220D02*
Y15779D01*
X91220Y15500D02*
X93779D01*
X92500Y14220D02*
Y16780D01*
X45720Y50000D02*
X48280D01*
X47000Y48720D02*
Y51279D01*
X46220Y38000D02*
X48779D01*
X47500Y36720D02*
Y39279D01*
X17221Y61500D02*
X19780D01*
X18500Y60220D02*
Y62779D01*
X52720Y87500D02*
X55279D01*
X54000Y86221D02*
Y88779D01*
X66720Y75000D02*
X69279D01*
X68000Y73721D02*
Y76279D01*
X106220Y51500D02*
X108780D01*
X107500Y50221D02*
Y52780D01*
X100221Y36500D02*
X102779D01*
X101500Y35221D02*
Y37780D01*
X101720Y67000D02*
X104279D01*
X103000Y65720D02*
Y68279D01*
X102220Y60500D02*
X104780D01*
X103500Y59220D02*
Y61779D01*
X33220Y85000D02*
X35780D01*
X34500Y83720D02*
Y86279D01*
X48720Y85000D02*
X51279D01*
X50000Y83720D02*
Y86279D01*
X15221Y82500D02*
X17779D01*
X16500Y81221D02*
Y83780D01*
X104220Y43000D02*
X106780D01*
X105500Y41721D02*
Y44280D01*
X50721Y66000D02*
X53280D01*
X52000Y64720D02*
Y67279D01*
X140220Y68500D02*
X142780D01*
X141500Y67220D02*
Y69779D01*
X132720Y68500D02*
X135280D01*
X134000Y67220D02*
Y69779D01*
X69721Y29500D02*
X72280D01*
X71000Y28220D02*
Y30779D01*
X91720Y26500D02*
X94279D01*
X93000Y25221D02*
Y27779D01*
X56221Y26500D02*
X58780D01*
X57500Y25221D02*
Y27779D01*
X106720Y32000D02*
X109280D01*
X108000Y30720D02*
Y33279D01*
X136721Y51000D02*
X139279D01*
X138000Y49720D02*
Y52280D01*
X58346Y30875D02*
X60905D01*
X59625Y29595D02*
Y32154D01*
X2547Y12500D02*
X8453D01*
X5500Y9547D02*
Y15453D01*
X72720Y94500D02*
X75279D01*
X74000Y93221D02*
Y95780D01*
X77220Y75000D02*
X79779D01*
X78500Y73721D02*
Y76279D01*
D13*
X144500Y78500D02*
X184000D01*
Y31000D02*
Y78500D01*
X144630Y31000D02*
Y78244D01*
Y31000D02*
X184000D01*
M02*
