G04 Layer_Physical_Order=2*
G04 Layer_Color=16711680*
%FSLAX25Y25*%
%MOIN*%
G70*
G01*
G75*
%ADD19C,0.01200*%
%ADD20R,0.04724X0.04724*%
%ADD21C,0.04724*%
%ADD22C,0.03150*%
%ADD23C,0.05905*%
G36*
X139000Y102500D02*
Y79500D01*
X140000Y78500D01*
X140500Y79000D01*
X185000D01*
X188000Y76000D01*
Y33000D01*
X185500Y30500D01*
X139500D01*
Y30000D01*
X139000Y29500D01*
Y11500D01*
X136000Y8500D01*
X6695D01*
X6595Y9000D01*
X7342Y9309D01*
X8105Y9895D01*
X8691Y10658D01*
X9059Y11546D01*
X9184Y12500D01*
X9059Y13454D01*
X8691Y14342D01*
X8105Y15105D01*
X7342Y15691D01*
X6454Y16059D01*
X5500Y16184D01*
X4546Y16059D01*
X3658Y15691D01*
X2895Y15105D01*
X2309Y14342D01*
X1941Y13454D01*
X1816Y12500D01*
X1908Y11799D01*
X1434Y11566D01*
X1000Y12000D01*
Y102500D01*
X5000Y106500D01*
X135000D01*
X139000Y102500D01*
D02*
G37*
%LPC*%
G36*
X10000Y44089D02*
X9201Y43983D01*
X8456Y43675D01*
X7816Y43184D01*
X7325Y42544D01*
X7017Y41799D01*
X6911Y41000D01*
X7017Y40201D01*
X7325Y39456D01*
X7816Y38816D01*
X8456Y38325D01*
X9201Y38017D01*
X10000Y37911D01*
X10799Y38017D01*
X11544Y38325D01*
X12184Y38816D01*
X12675Y39456D01*
X12983Y40201D01*
X13089Y41000D01*
X12983Y41799D01*
X12675Y42544D01*
X12184Y43184D01*
X11544Y43675D01*
X10799Y43983D01*
X10000Y44089D01*
D02*
G37*
G36*
X145031Y39500D02*
X143000D01*
Y37469D01*
X143172Y37492D01*
X143798Y37751D01*
X144336Y38164D01*
X144749Y38702D01*
X145009Y39328D01*
X145031Y39500D01*
D02*
G37*
G36*
X140531Y50500D02*
X135469D01*
X135492Y50328D01*
X135751Y49701D01*
X136164Y49164D01*
X136674Y48772D01*
Y44500D01*
X136775Y43993D01*
X137063Y43563D01*
X138838Y41787D01*
X138647Y41326D01*
X133500D01*
X132993Y41225D01*
X132563Y40937D01*
X125138Y33513D01*
X125000Y33531D01*
Y31500D01*
X127031D01*
X127013Y31639D01*
X134049Y38675D01*
X140272D01*
X140664Y38164D01*
X141201Y37751D01*
X141828Y37492D01*
X142000Y37469D01*
Y40000D01*
Y42531D01*
X141861Y42513D01*
X139325Y45049D01*
Y48772D01*
X139836Y49164D01*
X140249Y49701D01*
X140508Y50328D01*
X140531Y50500D01*
D02*
G37*
G36*
X143000Y42531D02*
Y40500D01*
X145031D01*
X145009Y40672D01*
X144749Y41298D01*
X144336Y41836D01*
X143798Y42249D01*
X143172Y42509D01*
X143000Y42531D01*
D02*
G37*
G36*
X30000Y52531D02*
X29828Y52508D01*
X29201Y52249D01*
X28664Y51836D01*
X28251Y51298D01*
X27992Y50672D01*
X27969Y50500D01*
X30000D01*
Y52531D01*
D02*
G37*
G36*
X10000Y54089D02*
X9201Y53983D01*
X8456Y53675D01*
X7816Y53184D01*
X7325Y52544D01*
X7017Y51799D01*
X6911Y51000D01*
X7017Y50201D01*
X7325Y49456D01*
X7816Y48816D01*
X8456Y48325D01*
X9201Y48017D01*
X10000Y47911D01*
X10799Y48017D01*
X11544Y48325D01*
X12184Y48816D01*
X12675Y49456D01*
X12983Y50201D01*
X13089Y51000D01*
X12983Y51799D01*
X12675Y52544D01*
X12184Y53184D01*
X11544Y53675D01*
X10799Y53983D01*
X10000Y54089D01*
D02*
G37*
G36*
X30000Y49500D02*
X27969D01*
X27992Y49328D01*
X28251Y48702D01*
X28664Y48164D01*
X29201Y47751D01*
X29828Y47491D01*
X30000Y47469D01*
Y49500D01*
D02*
G37*
G36*
X124000Y33531D02*
X123828Y33509D01*
X123202Y33249D01*
X122664Y32836D01*
X122251Y32298D01*
X121992Y31672D01*
X121969Y31500D01*
X124000D01*
Y33531D01*
D02*
G37*
G36*
X127031Y30500D02*
X125000D01*
Y28469D01*
X125172Y28492D01*
X125798Y28751D01*
X126336Y29164D01*
X126749Y29702D01*
X127008Y30328D01*
X127031Y30500D01*
D02*
G37*
G36*
X124000D02*
X121969D01*
X121992Y30328D01*
X122251Y29702D01*
X122664Y29164D01*
X123202Y28751D01*
X123828Y28492D01*
X124000Y28469D01*
Y30500D01*
D02*
G37*
G36*
X35000Y35000D02*
X32969D01*
X32991Y34828D01*
X33251Y34201D01*
X33664Y33664D01*
X34201Y33251D01*
X34828Y32991D01*
X35000Y32969D01*
Y35000D01*
D02*
G37*
G36*
X33031Y49500D02*
X31000D01*
Y47469D01*
X31139Y47487D01*
X34174Y44451D01*
Y37728D01*
X33664Y37336D01*
X33251Y36799D01*
X32991Y36172D01*
X32969Y36000D01*
X38031D01*
X38008Y36172D01*
X37749Y36799D01*
X37336Y37336D01*
X36825Y37728D01*
Y45000D01*
X36725Y45507D01*
X36437Y45937D01*
X33013Y49362D01*
X33031Y49500D01*
D02*
G37*
G36*
X18000Y53319D02*
X17112Y53143D01*
X16360Y52640D01*
X15857Y51888D01*
X15681Y51000D01*
X15857Y50112D01*
X16360Y49360D01*
X16675Y49150D01*
Y36862D01*
X16357Y36388D01*
X16181Y35500D01*
X16357Y34612D01*
X16860Y33860D01*
X17612Y33357D01*
X18500Y33181D01*
X19388Y33357D01*
X20140Y33860D01*
X20643Y34612D01*
X20819Y35500D01*
X20643Y36388D01*
X20140Y37140D01*
X19388Y37643D01*
X19326Y37655D01*
Y49150D01*
X19640Y49360D01*
X20143Y50112D01*
X20319Y51000D01*
X20143Y51888D01*
X19640Y52640D01*
X18888Y53143D01*
X18000Y53319D01*
D02*
G37*
G36*
X38031Y35000D02*
X36000D01*
Y32969D01*
X36172Y32991D01*
X36799Y33251D01*
X37336Y33664D01*
X37749Y34201D01*
X38008Y34828D01*
X38031Y35000D01*
D02*
G37*
G36*
X74000Y96819D02*
X73112Y96643D01*
X72360Y96140D01*
X71857Y95388D01*
X71681Y94500D01*
X71857Y93612D01*
X72360Y92860D01*
X72675Y92650D01*
Y79500D01*
X72775Y78993D01*
X73063Y78563D01*
X76254Y75371D01*
X76181Y75000D01*
X76357Y74112D01*
X76860Y73360D01*
X77612Y72857D01*
X78500Y72681D01*
X79388Y72857D01*
X80140Y73360D01*
X80643Y74112D01*
X80819Y75000D01*
X80643Y75888D01*
X80140Y76640D01*
X79388Y77143D01*
X79020Y77216D01*
X79007Y77225D01*
X78500Y77325D01*
X78124Y77251D01*
X75326Y80049D01*
Y88760D01*
X75777Y88897D01*
X76174Y88600D01*
Y86000D01*
X76275Y85493D01*
X76563Y85063D01*
X85254Y76371D01*
X85181Y76000D01*
X85357Y75112D01*
X85860Y74360D01*
X86612Y73857D01*
X87500Y73681D01*
X88388Y73857D01*
X89140Y74360D01*
X89643Y75112D01*
X89819Y76000D01*
X89643Y76888D01*
X89140Y77640D01*
X88388Y78143D01*
X87500Y78319D01*
X87129Y78246D01*
X78825Y86549D01*
Y88650D01*
X79140Y88860D01*
X79643Y89612D01*
X79819Y90500D01*
X79643Y91388D01*
X79140Y92140D01*
X78388Y92643D01*
X77500Y92819D01*
X76612Y92643D01*
X75933Y92189D01*
X75635Y92282D01*
X75437Y92407D01*
X75421Y92714D01*
X75640Y92860D01*
X76143Y93612D01*
X76319Y94500D01*
X76143Y95388D01*
X75640Y96140D01*
X74888Y96643D01*
X74000Y96819D01*
D02*
G37*
G36*
X70531Y74500D02*
X68500D01*
Y72469D01*
X68672Y72492D01*
X69298Y72751D01*
X69836Y73164D01*
X70249Y73702D01*
X70508Y74328D01*
X70531Y74500D01*
D02*
G37*
G36*
X12362Y74382D02*
X10500D01*
Y71500D01*
X13382D01*
Y73362D01*
X13304Y73752D01*
X13083Y74083D01*
X12752Y74304D01*
X12362Y74382D01*
D02*
G37*
G36*
X68500Y77531D02*
Y75500D01*
X70531D01*
X70508Y75672D01*
X70249Y76298D01*
X69836Y76836D01*
X69298Y77249D01*
X68672Y77508D01*
X68500Y77531D01*
D02*
G37*
G36*
X54500Y90031D02*
Y88000D01*
X56531D01*
X56508Y88172D01*
X56249Y88798D01*
X55836Y89336D01*
X55299Y89749D01*
X54672Y90008D01*
X54500Y90031D01*
D02*
G37*
G36*
X53500D02*
X53328Y90008D01*
X52701Y89749D01*
X52164Y89336D01*
X51751Y88798D01*
X51491Y88172D01*
X51403Y87500D01*
X51417Y87390D01*
X50951Y87100D01*
X50888Y87143D01*
X50000Y87319D01*
X49112Y87143D01*
X48360Y86640D01*
X48150Y86326D01*
X36350D01*
X36140Y86640D01*
X35388Y87143D01*
X34500Y87319D01*
X33612Y87143D01*
X32860Y86640D01*
X32357Y85888D01*
X32181Y85000D01*
X32357Y84112D01*
X32860Y83360D01*
X33612Y82857D01*
X34500Y82681D01*
X35388Y82857D01*
X36140Y83360D01*
X36350Y83675D01*
X48150D01*
X48360Y83360D01*
X49112Y82857D01*
X50000Y82681D01*
X50888Y82857D01*
X51640Y83360D01*
X52143Y84112D01*
X52175Y84272D01*
X52675Y84223D01*
Y80500D01*
X52775Y79993D01*
X53063Y79563D01*
X58563Y74063D01*
X58993Y73775D01*
X59500Y73674D01*
X65772D01*
X66164Y73164D01*
X66702Y72751D01*
X67328Y72492D01*
X67500Y72469D01*
Y75000D01*
Y77531D01*
X67328Y77508D01*
X66702Y77249D01*
X66164Y76836D01*
X65772Y76326D01*
X60049D01*
X55326Y81049D01*
Y85272D01*
X55836Y85664D01*
X56249Y86202D01*
X56508Y86828D01*
X56531Y87000D01*
X54000D01*
Y87500D01*
X53500D01*
Y90031D01*
D02*
G37*
G36*
X16500Y84819D02*
X15612Y84643D01*
X14860Y84140D01*
X14357Y83388D01*
X14181Y82500D01*
X14357Y81612D01*
X14860Y80860D01*
X15175Y80650D01*
Y73500D01*
X15275Y72993D01*
X15563Y72563D01*
X20563Y67563D01*
X20993Y67275D01*
X21500Y67175D01*
X42951D01*
X51674Y58451D01*
Y53000D01*
X51775Y52493D01*
X52063Y52063D01*
X72007Y32119D01*
X71748Y31671D01*
X71000Y31819D01*
X70112Y31643D01*
X69360Y31140D01*
X69150Y30825D01*
X67549D01*
X63944Y34430D01*
X63812Y34628D01*
X62128Y36312D01*
X61930Y36444D01*
X59437Y38937D01*
X59007Y39225D01*
X58500Y39325D01*
X49350D01*
X49140Y39640D01*
X48388Y40143D01*
X48325Y40155D01*
Y48150D01*
X48640Y48360D01*
X49143Y49112D01*
X49319Y50000D01*
X49143Y50888D01*
X48640Y51640D01*
X47888Y52143D01*
X47000Y52319D01*
X46112Y52143D01*
X45360Y51640D01*
X44857Y50888D01*
X44681Y50000D01*
X44857Y49112D01*
X45360Y48360D01*
X45674Y48150D01*
Y39362D01*
X45357Y38888D01*
X45181Y38000D01*
X45357Y37112D01*
X45860Y36360D01*
X46612Y35857D01*
X47500Y35681D01*
X48388Y35857D01*
X49140Y36360D01*
X49350Y36674D01*
X57951D01*
X60188Y34438D01*
X60386Y34306D01*
X61805Y32886D01*
X61938Y32688D01*
X66063Y28563D01*
X66418Y28326D01*
X66398Y28006D01*
X66335Y27825D01*
X59471D01*
X59277Y28115D01*
X59541Y28572D01*
X59625Y28555D01*
X60513Y28732D01*
X61265Y29235D01*
X61768Y29987D01*
X61945Y30875D01*
X61768Y31762D01*
X61265Y32515D01*
X60513Y33018D01*
X59625Y33194D01*
X58738Y33018D01*
X57985Y32515D01*
X57775Y32200D01*
X34174D01*
X25668Y40707D01*
Y55658D01*
X25567Y56165D01*
X25279Y56595D01*
X20746Y61129D01*
X20819Y61500D01*
X20643Y62388D01*
X20140Y63140D01*
X19388Y63643D01*
X18500Y63819D01*
X17612Y63643D01*
X16860Y63140D01*
X16357Y62388D01*
X16181Y61500D01*
X16357Y60612D01*
X16860Y59860D01*
X17612Y59357D01*
X18500Y59181D01*
X18871Y59254D01*
X23017Y55109D01*
Y40158D01*
X23117Y39651D01*
X23405Y39221D01*
X32688Y29938D01*
X33118Y29650D01*
X33625Y29549D01*
X41579D01*
X41730Y29049D01*
X41563Y28937D01*
X36563Y23937D01*
X36275Y23507D01*
X36174Y23000D01*
Y17350D01*
X35860Y17140D01*
X35357Y16388D01*
X35181Y15500D01*
X35357Y14612D01*
X35860Y13860D01*
X36612Y13357D01*
X37500Y13181D01*
X38388Y13357D01*
X39140Y13860D01*
X39643Y14612D01*
X39819Y15500D01*
X39643Y16388D01*
X39140Y17140D01*
X38826Y17350D01*
Y22451D01*
X43049Y26675D01*
X50150D01*
X50360Y26360D01*
X50674Y26150D01*
Y23549D01*
X46063Y18937D01*
X45775Y18507D01*
X45674Y18000D01*
Y12500D01*
X45775Y11993D01*
X46063Y11563D01*
X47563Y10063D01*
X47993Y9775D01*
X48500Y9674D01*
X106500D01*
X107007Y9775D01*
X107437Y10063D01*
X111937Y14563D01*
X112225Y14993D01*
X112326Y15500D01*
Y43451D01*
X114049Y45175D01*
X126500D01*
X127007Y45275D01*
X127437Y45563D01*
X142437Y60563D01*
X142725Y60993D01*
X142825Y61500D01*
Y66650D01*
X143140Y66860D01*
X143643Y67612D01*
X143819Y68500D01*
X143643Y69388D01*
X143140Y70140D01*
X142388Y70643D01*
X141500Y70819D01*
X140612Y70643D01*
X139860Y70140D01*
X139357Y69388D01*
X139181Y68500D01*
X139357Y67612D01*
X139860Y66860D01*
X140174Y66650D01*
Y62049D01*
X125951Y47826D01*
X113500D01*
X112993Y47725D01*
X112563Y47437D01*
X110063Y44937D01*
X109775Y44507D01*
X109675Y44000D01*
Y41165D01*
X109494Y41102D01*
X109175Y41082D01*
X108937Y41437D01*
X107746Y42629D01*
X107819Y43000D01*
X107643Y43888D01*
X107140Y44640D01*
X106388Y45143D01*
X105500Y45319D01*
X104612Y45143D01*
X103860Y44640D01*
X103357Y43888D01*
X103325Y43728D01*
X102825Y43777D01*
Y57902D01*
X103206Y58239D01*
X103500Y58181D01*
X104388Y58357D01*
X105140Y58860D01*
X105643Y59612D01*
X105675Y59772D01*
X106175Y59723D01*
Y53350D01*
X105860Y53140D01*
X105357Y52388D01*
X105181Y51500D01*
X105357Y50612D01*
X105860Y49860D01*
X106612Y49357D01*
X107500Y49181D01*
X108388Y49357D01*
X109140Y49860D01*
X109643Y50612D01*
X109819Y51500D01*
X109643Y52388D01*
X109140Y53140D01*
X108826Y53350D01*
Y64000D01*
X108725Y64507D01*
X108437Y64937D01*
X105437Y67937D01*
X105007Y68225D01*
X104904Y68245D01*
X104640Y68640D01*
X103888Y69143D01*
X103000Y69319D01*
X102112Y69143D01*
X101666Y68845D01*
X101096Y69065D01*
X101065Y69190D01*
X109549Y77675D01*
X112150D01*
X112360Y77360D01*
X113112Y76857D01*
X114000Y76681D01*
X114888Y76857D01*
X115640Y77360D01*
X116143Y78112D01*
X116319Y79000D01*
X116143Y79888D01*
X115640Y80640D01*
X114888Y81143D01*
X114000Y81319D01*
X113112Y81143D01*
X112360Y80640D01*
X112150Y80326D01*
X109000D01*
X108493Y80225D01*
X108063Y79937D01*
X98563Y70437D01*
X98275Y70007D01*
X98175Y69500D01*
Y63500D01*
X98275Y62993D01*
X98563Y62563D01*
X101126Y60000D01*
X100563Y59437D01*
X100275Y59007D01*
X100174Y58500D01*
Y38350D01*
X99860Y38140D01*
X99357Y37388D01*
X99181Y36500D01*
X99357Y35612D01*
X99860Y34860D01*
X100612Y34357D01*
X101500Y34181D01*
X102388Y34357D01*
X103140Y34860D01*
X103643Y35612D01*
X103819Y36500D01*
X103643Y37388D01*
X103140Y38140D01*
X102825Y38350D01*
Y42223D01*
X103325Y42272D01*
X103357Y42112D01*
X103860Y41360D01*
X104612Y40857D01*
X105500Y40681D01*
X105871Y40754D01*
X106675Y39951D01*
Y33850D01*
X106360Y33640D01*
X106150Y33325D01*
X97934D01*
X97427Y33225D01*
X96997Y32937D01*
X95885Y31826D01*
X76049D01*
X54325Y53549D01*
Y59000D01*
X54225Y59507D01*
X53937Y59937D01*
X44437Y69437D01*
X44007Y69725D01*
X43500Y69826D01*
X22049D01*
X17826Y74049D01*
Y80650D01*
X18140Y80860D01*
X18643Y81612D01*
X18819Y82500D01*
X18643Y83388D01*
X18140Y84140D01*
X17388Y84643D01*
X16500Y84819D01*
D02*
G37*
G36*
X9500Y74382D02*
X7638D01*
X7248Y74304D01*
X6917Y74083D01*
X6696Y73752D01*
X6618Y73362D01*
Y71500D01*
X9500D01*
Y74382D01*
D02*
G37*
G36*
X138500Y53531D02*
Y51500D01*
X140531D01*
X140508Y51672D01*
X140249Y52298D01*
X139836Y52836D01*
X139298Y53249D01*
X138672Y53509D01*
X138500Y53531D01*
D02*
G37*
G36*
X137500D02*
X137328Y53509D01*
X136702Y53249D01*
X136164Y52836D01*
X135751Y52298D01*
X135492Y51672D01*
X135469Y51500D01*
X137500D01*
Y53531D01*
D02*
G37*
G36*
X31000Y52531D02*
Y50500D01*
X33031D01*
X33009Y50672D01*
X32749Y51298D01*
X32336Y51836D01*
X31798Y52249D01*
X31172Y52508D01*
X31000Y52531D01*
D02*
G37*
G36*
X10000Y64089D02*
X9201Y63983D01*
X8456Y63675D01*
X7816Y63184D01*
X7325Y62544D01*
X7017Y61799D01*
X6911Y61000D01*
X7017Y60201D01*
X7325Y59456D01*
X7816Y58816D01*
X8456Y58325D01*
X9201Y58017D01*
X10000Y57911D01*
X10799Y58017D01*
X11544Y58325D01*
X12184Y58816D01*
X12675Y59456D01*
X12983Y60201D01*
X13089Y61000D01*
X12983Y61799D01*
X12675Y62544D01*
X12184Y63184D01*
X11544Y63675D01*
X10799Y63983D01*
X10000Y64089D01*
D02*
G37*
G36*
X9500Y70500D02*
X6618D01*
Y68638D01*
X6696Y68248D01*
X6917Y67917D01*
X7248Y67696D01*
X7638Y67618D01*
X9500D01*
Y70500D01*
D02*
G37*
G36*
X13382D02*
X10500D01*
Y67618D01*
X12362D01*
X12752Y67696D01*
X13083Y67917D01*
X13304Y68248D01*
X13382Y68638D01*
Y70500D01*
D02*
G37*
G36*
X121500Y85826D02*
X105500D01*
X104993Y85725D01*
X104563Y85437D01*
X89451Y70325D01*
X55000D01*
X54493Y70225D01*
X54063Y69937D01*
X52371Y68246D01*
X52000Y68319D01*
X51112Y68143D01*
X50360Y67640D01*
X49857Y66888D01*
X49681Y66000D01*
X49857Y65112D01*
X50360Y64360D01*
X51112Y63857D01*
X52000Y63681D01*
X52888Y63857D01*
X53640Y64360D01*
X54143Y65112D01*
X54319Y66000D01*
X54246Y66371D01*
X55549Y67674D01*
X90000D01*
X90507Y67775D01*
X90937Y68063D01*
X106049Y83175D01*
X120951D01*
X132675Y71451D01*
Y70350D01*
X132360Y70140D01*
X131857Y69388D01*
X131681Y68500D01*
X131857Y67612D01*
X132360Y66860D01*
X133112Y66357D01*
X134000Y66181D01*
X134888Y66357D01*
X135640Y66860D01*
X136143Y67612D01*
X136319Y68500D01*
X136143Y69388D01*
X135640Y70140D01*
X135326Y70350D01*
Y72000D01*
X135225Y72507D01*
X134937Y72937D01*
X122437Y85437D01*
X122007Y85725D01*
X121500Y85826D01*
D02*
G37*
%LPD*%
G36*
X106360Y30360D02*
X107112Y29857D01*
X108000Y29681D01*
X108888Y29857D01*
X109175Y30049D01*
X109675Y29782D01*
Y16049D01*
X105951Y12325D01*
X54675D01*
X54481Y12777D01*
X54764Y13174D01*
X91386D01*
X91828Y12991D01*
X92000Y12969D01*
Y15500D01*
Y18031D01*
X91828Y18009D01*
X91202Y17749D01*
X90664Y17336D01*
X90251Y16799D01*
X89991Y16172D01*
X89946Y15825D01*
X54728D01*
X54336Y16336D01*
X53799Y16749D01*
X53172Y17008D01*
X53000Y17031D01*
Y14500D01*
X52500D01*
Y14000D01*
X49969D01*
X49992Y13828D01*
X50251Y13202D01*
X50539Y12825D01*
X50326Y12325D01*
X49049D01*
X48325Y13049D01*
Y17451D01*
X52937Y22063D01*
X53225Y22493D01*
X53325Y23000D01*
Y26150D01*
X53640Y26360D01*
X54143Y27112D01*
X54319Y28000D01*
X54143Y28888D01*
X53995Y29108D01*
X54231Y29549D01*
X57654D01*
X57848Y29260D01*
X57584Y28803D01*
X57500Y28819D01*
X56612Y28643D01*
X55860Y28140D01*
X55357Y27388D01*
X55181Y26500D01*
X55357Y25612D01*
X55860Y24860D01*
X56612Y24357D01*
X57500Y24181D01*
X58388Y24357D01*
X59140Y24860D01*
X59350Y25174D01*
X91150D01*
X91360Y24860D01*
X92112Y24357D01*
X93000Y24181D01*
X93888Y24357D01*
X94640Y24860D01*
X95143Y25612D01*
X95319Y26500D01*
X95143Y27388D01*
X94640Y28140D01*
X93888Y28643D01*
X93728Y28675D01*
X93777Y29175D01*
X96434D01*
X96942Y29275D01*
X97372Y29563D01*
X98483Y30674D01*
X106150D01*
X106360Y30360D01*
D02*
G37*
%LPC*%
G36*
X95031Y15000D02*
X93000D01*
Y12969D01*
X93172Y12991D01*
X93799Y13251D01*
X94336Y13664D01*
X94749Y14201D01*
X95008Y14828D01*
X95031Y15000D01*
D02*
G37*
G36*
X93000Y18031D02*
Y16000D01*
X95031D01*
X95008Y16172D01*
X94749Y16799D01*
X94336Y17336D01*
X93799Y17749D01*
X93172Y18009D01*
X93000Y18031D01*
D02*
G37*
G36*
X52000Y17031D02*
X51828Y17008D01*
X51201Y16749D01*
X50664Y16336D01*
X50251Y15799D01*
X49992Y15172D01*
X49969Y15000D01*
X52000D01*
Y17031D01*
D02*
G37*
%LPD*%
D19*
X77500Y86000D02*
Y90500D01*
Y86000D02*
X87500Y76000D01*
X133500Y40000D02*
X142500D01*
X124500Y31000D02*
X133500Y40000D01*
X18000Y36000D02*
X18500Y35500D01*
X35500D02*
Y45000D01*
X18000Y36000D02*
Y51000D01*
X30500Y50000D02*
X35500Y45000D01*
X42500Y28000D02*
X52000D01*
X37500Y15500D02*
Y23000D01*
X42500Y28000D01*
X52500Y14500D02*
X91500D01*
X92500Y15500D01*
X47000Y38500D02*
Y50000D01*
Y38500D02*
X47500Y38000D01*
X18500Y61500D02*
X24342Y55658D01*
Y40158D02*
Y55658D01*
X54000Y80500D02*
Y87500D01*
Y80500D02*
X59500Y75000D01*
X68000D01*
X52000Y23000D02*
Y28000D01*
X47000Y18000D02*
X52000Y23000D01*
X47000Y12500D02*
Y18000D01*
Y12500D02*
X48500Y11000D01*
X106500D01*
X103000Y67000D02*
X104500D01*
X107500Y64000D01*
Y51500D02*
Y64000D01*
X109000Y79000D02*
X114000D01*
X102500Y60500D02*
X103500D01*
X99500Y63500D02*
X102500Y60500D01*
X99500Y63500D02*
Y69500D01*
X109000Y79000D01*
X34500Y85000D02*
X50000D01*
X101500Y36500D02*
Y58500D01*
X103500Y60500D01*
X52000Y66000D02*
X55000Y69000D01*
X90000D01*
X105500Y84500D01*
X121500D01*
X134000Y72000D01*
Y68500D02*
Y72000D01*
X96434Y30500D02*
X97934Y32000D01*
X57500Y26500D02*
X93000D01*
X141500Y61500D02*
Y68500D01*
X113500Y46500D02*
X126500D01*
X141500Y61500D01*
X97934Y32000D02*
X108000D01*
X105500Y43000D02*
X108000Y40500D01*
Y32000D02*
Y40500D01*
X106500Y11000D02*
X111000Y15500D01*
Y44000D01*
X113500Y46500D01*
X138000Y44500D02*
Y51000D01*
Y44500D02*
X142500Y40000D01*
X16500Y73500D02*
Y82500D01*
Y73500D02*
X21500Y68500D01*
X43500D01*
X75500Y30500D02*
X96434D01*
X67000Y29500D02*
X71000D01*
X47500Y38000D02*
X58500D01*
X33625Y30875D02*
X59625D01*
X24342Y40158D02*
X33625Y30875D01*
X58500Y38000D02*
X61125Y35375D01*
X61191D01*
X62875Y33691D01*
Y33625D02*
Y33691D01*
Y33625D02*
X67000Y29500D01*
X53000Y53000D02*
X75500Y30500D01*
X53000Y53000D02*
Y59000D01*
X43500Y68500D02*
X53000Y59000D01*
X74000Y79500D02*
Y94500D01*
X78500Y75000D02*
Y76000D01*
X74000Y79500D02*
X78500Y75000D01*
D20*
X10000Y71000D02*
D03*
D21*
Y61000D02*
D03*
Y51000D02*
D03*
Y41000D02*
D03*
D22*
X87500Y76000D02*
D03*
X77500Y90500D02*
D03*
X124500Y31000D02*
D03*
X142500Y40000D02*
D03*
X114000Y79000D02*
D03*
X18500Y35500D02*
D03*
X35500D02*
D03*
X18000Y51000D02*
D03*
X30500Y50000D02*
D03*
X37500Y15500D02*
D03*
X52000Y28000D02*
D03*
X52500Y14500D02*
D03*
X92500Y15500D02*
D03*
X47000Y50000D02*
D03*
X47500Y38000D02*
D03*
X18500Y61500D02*
D03*
X54000Y87500D02*
D03*
X68000Y75000D02*
D03*
X107500Y51500D02*
D03*
X101500Y36500D02*
D03*
X103000Y67000D02*
D03*
X103500Y60500D02*
D03*
X34500Y85000D02*
D03*
X50000D02*
D03*
X16500Y82500D02*
D03*
X105500Y43000D02*
D03*
X52000Y66000D02*
D03*
X141500Y68500D02*
D03*
X134000D02*
D03*
X71000Y29500D02*
D03*
X93000Y26500D02*
D03*
X57500D02*
D03*
X108000Y32000D02*
D03*
X138000Y51000D02*
D03*
X59625Y30875D02*
D03*
X74000Y94500D02*
D03*
X78500Y75000D02*
D03*
D23*
X5500Y12500D02*
D03*
M02*
