G04 Layer_Color=2752767*
%FSLAX25Y25*%
%MOIN*%
G70*
G01*
G75*
%ADD10C,0.01000*%
%ADD11C,0.00200*%
%ADD12C,0.00267*%
D10*
X135000Y7500D02*
G03*
X140000Y12500I0J5000D01*
G01*
Y102500D02*
G03*
X135000Y107500I-5000J0D01*
G01*
X0Y13000D02*
G03*
X5500Y7500I5500J0D01*
G01*
X5000Y107500D02*
G03*
X0Y102500I0J-5000D01*
G01*
X188976Y76000D02*
G03*
X185000Y80000I-3988J12D01*
G01*
X184500Y29500D02*
G03*
X188976Y33976I0J4476D01*
G01*
X140000Y80000D02*
Y84500D01*
Y102500D01*
X5000Y107500D02*
X135000D01*
X140000Y12500D02*
Y29500D01*
X5500Y7500D02*
X135000D01*
X0Y13000D02*
Y102500D01*
X140000Y80000D02*
X185000D01*
X140000Y29500D02*
X184500D01*
X188976Y33976D02*
Y76000D01*
D11*
X9200Y70200D02*
Y71800D01*
X10800D01*
Y70200D01*
X9200D01*
Y60200D02*
Y61800D01*
X10800D01*
Y60200D01*
X9200D01*
Y50200D02*
Y51800D01*
X10800D01*
Y50200D01*
X9200D01*
Y40200D02*
Y41800D01*
X10800D01*
Y40200D01*
X9200D01*
X5500Y11700D02*
X4700Y13300D01*
X6300D01*
X5500Y11700D01*
D12*
X88300Y76000D02*
G03*
X88300Y76000I-800J0D01*
G01*
X78300Y90500D02*
G03*
X78300Y90500I-800J0D01*
G01*
X125300Y31000D02*
G03*
X125300Y31000I-800J0D01*
G01*
X143300Y40000D02*
G03*
X143300Y40000I-800J0D01*
G01*
X114800Y79000D02*
G03*
X114800Y79000I-800J0D01*
G01*
X19300Y35500D02*
G03*
X19300Y35500I-800J0D01*
G01*
X36300D02*
G03*
X36300Y35500I-800J0D01*
G01*
X18800Y51000D02*
G03*
X18800Y51000I-800J0D01*
G01*
X31300Y50000D02*
G03*
X31300Y50000I-800J0D01*
G01*
X38300Y15500D02*
G03*
X38300Y15500I-800J0D01*
G01*
X52800Y28000D02*
G03*
X52800Y28000I-800J0D01*
G01*
X53300Y14500D02*
G03*
X53300Y14500I-800J0D01*
G01*
X93300Y15500D02*
G03*
X93300Y15500I-800J0D01*
G01*
X47800Y50000D02*
G03*
X47800Y50000I-800J0D01*
G01*
X48300Y38000D02*
G03*
X48300Y38000I-800J0D01*
G01*
X19300Y61500D02*
G03*
X19300Y61500I-800J0D01*
G01*
X54800Y87500D02*
G03*
X54800Y87500I-800J0D01*
G01*
X68800Y75000D02*
G03*
X68800Y75000I-800J0D01*
G01*
X108300Y51500D02*
G03*
X108300Y51500I-800J0D01*
G01*
X102300Y36500D02*
G03*
X102300Y36500I-800J0D01*
G01*
X103800Y67000D02*
G03*
X103800Y67000I-800J0D01*
G01*
X104300Y60500D02*
G03*
X104300Y60500I-800J0D01*
G01*
X35300Y85000D02*
G03*
X35300Y85000I-800J0D01*
G01*
X50800D02*
G03*
X50800Y85000I-800J0D01*
G01*
X17300Y82500D02*
G03*
X17300Y82500I-800J0D01*
G01*
X106300Y43000D02*
G03*
X106300Y43000I-800J0D01*
G01*
X52800Y66000D02*
G03*
X52800Y66000I-800J0D01*
G01*
X142300Y68500D02*
G03*
X142300Y68500I-800J0D01*
G01*
X134800D02*
G03*
X134800Y68500I-800J0D01*
G01*
X71800Y29500D02*
G03*
X71800Y29500I-800J0D01*
G01*
X93800Y26500D02*
G03*
X93800Y26500I-800J0D01*
G01*
X58300D02*
G03*
X58300Y26500I-800J0D01*
G01*
X108800Y32000D02*
G03*
X108800Y32000I-800J0D01*
G01*
X138800Y51000D02*
G03*
X138800Y51000I-800J0D01*
G01*
X60425Y30875D02*
G03*
X60425Y30875I-800J0D01*
G01*
X74800Y94500D02*
G03*
X74800Y94500I-800J0D01*
G01*
X79300Y75000D02*
G03*
X79300Y75000I-800J0D01*
G01*
M02*
